<svg width="30" height="87" viewBox="0 0 30 87" fill="none" xmlns="http://www.w3.org/2000/svg">
<path d="M15.9999 1.97561C15.9864 0.871124 15.0801 -0.0133207 13.9756 0.000148654C12.8711 0.013618 11.9867 0.919901 12.0001 2.02439L15.9999 1.97561ZM13.6153 86.4312C14.4058 87.2027 15.6721 87.1872 16.4435 86.3967L29.0153 73.5145C29.7868 72.724 29.7713 71.4578 28.9808 70.6863C28.1903 69.9149 26.9241 69.9303 26.1526 70.7208L14.9777 82.1716L3.52687 70.9967C2.73636 70.2253 1.47012 70.2407 0.698657 71.0312C-0.0728096 71.8217 -0.0573677 73.088 0.733147 73.8594L13.6153 86.4312ZM14 2L12.0001 2.02439L13.0123 85.0242L15.0122 84.9999L17.012 84.9755L15.9999 1.97561L14 2Z" fill="white" fill-opacity="0.75"/>
</svg>
